<svg width="48" height="49" viewBox="0 0 48 49" fill="none" xmlns="http://www.w3.org/2000/svg">
<path d="M24 48.4277C37.2548 48.4277 48 37.6826 48 24.4277C48 11.1729 37.2548 0.427734 24 0.427734C10.7452 0.427734 0 11.1729 0 24.4277C0 37.6826 10.7452 48.4277 24 48.4277Z" fill="white"/>
<path fill-rule="evenodd" clip-rule="evenodd" d="M32.9432 15.5181C33.0442 15.535 33.1789 15.6024 33.1958 15.7539C33.2059 15.8448 34.3229 23.3996 35.2165 29.4434L35.2186 29.4582C35.8152 33.4929 36.3116 36.8504 36.3116 36.8571L27.4863 38.7603L11.2 35.7118C11.2 35.7118 13.2884 19.5434 13.3726 18.9539C13.4737 18.196 13.5074 18.1792 14.2989 17.9266C14.372 17.9083 14.7021 17.806 15.2171 17.6464L15.2172 17.6464C15.6525 17.5114 16.22 17.3356 16.8758 17.135C17.4316 14.7939 19.1832 10.196 22.8716 10.1792C23.3432 10.1792 23.8989 10.4487 24.3537 11.0381H24.4884C26.0716 11.0381 26.9811 12.3855 27.4695 13.8508C27.9916 13.6824 28.3116 13.5813 28.3284 13.5813C28.4632 13.5476 28.7832 13.4971 28.9516 13.6655C29.1032 13.8339 30.6358 15.3497 30.6358 15.3497C30.6358 15.3497 32.8421 15.5013 32.9432 15.5181ZM25.5758 14.445C25.9376 14.3377 26.2759 14.2374 26.5768 14.1371C26.24 13.076 25.6842 12.1497 24.8589 12.0318C25.0611 12.6045 25.1958 13.3455 25.1958 14.255V14.5581C25.3247 14.5195 25.4513 14.4819 25.5752 14.4452L25.5757 14.445L25.5758 14.445ZM23.8653 12.2171C24.0842 12.7897 24.2358 13.5981 24.2358 14.6929V14.8445C23.3432 15.1139 22.3663 15.4171 21.3895 15.7203C21.9453 13.6318 22.9726 12.6045 23.8653 12.2171ZM23.2421 11.3413C23.0905 11.2403 22.9221 11.1897 22.7705 11.1897C20.1263 11.1897 18.6442 14.6592 18.0042 16.7813C18.7115 16.5624 19.4861 16.3266 20.2607 16.0909L20.2611 16.0908C20.8 13.295 22.0632 11.8971 23.2421 11.3413Z" fill="#95BF47"/>
<path d="M32.9432 15.5181C32.8421 15.5013 30.6358 15.3497 30.6358 15.3497C30.6358 15.3497 29.1032 13.8339 28.9516 13.6655C28.8842 13.5981 28.8 13.5645 28.7158 13.5645L27.4863 38.7602L36.3116 36.8571C36.3116 36.8571 33.2126 15.9055 33.1958 15.7708C33.1789 15.6192 33.0442 15.535 32.9432 15.5181Z" fill="#5E8E3E"/>
<path d="M24.4884 20.4023L23.3937 23.6359C23.3937 23.6359 22.4337 23.1307 21.2716 23.1307C19.5537 23.1307 19.4695 24.2086 19.4695 24.478C19.4695 25.9601 23.3263 26.5159 23.3263 29.9854C23.3263 32.7138 21.5916 34.4654 19.2674 34.4654C16.4716 34.4654 15.04 32.7307 15.04 32.7307L15.7811 30.2549C15.7811 30.2549 17.2463 31.518 18.4926 31.518C19.3011 31.518 19.6379 30.878 19.6379 30.4065C19.6379 28.4696 16.4716 28.3854 16.4716 25.2191C16.4716 22.558 18.3916 19.9644 22.2484 19.9644C23.7642 19.9812 24.4884 20.4023 24.4884 20.4023Z" fill="white"/>
</svg>
