<svg width="48" height="49" viewBox="0 0 48 49" fill="none" xmlns="http://www.w3.org/2000/svg">
<path d="M0 24.4277C0 11.1729 10.7452 0.427734 24 0.427734C37.2548 0.427734 48 11.1729 48 24.4277C48 37.6826 37.2548 48.4277 24 48.4277C10.7452 48.4277 0 37.6826 0 24.4277Z" fill="white"/>
<path d="M12 24.6103C12 29.4559 14.9383 33.644 19.2 35.6279L13.1062 19.6279C12.3974 21.1504 12 22.8354 12 24.6103Z" fill="#3E3D3A"/>
<path d="M31.9974 24.1917C31.9974 22.6601 31.4566 21.6002 30.9933 20.775C30.376 19.754 29.7969 18.8903 29.7969 17.8693C29.7969 16.7306 30.6458 15.6705 31.8422 15.6705C31.8962 15.6705 31.9474 15.6771 32 15.6805C29.8332 13.6609 26.9464 12.4277 23.7757 12.4277C19.5207 12.4277 15.7777 14.6487 13.6 18.0118C13.886 18.0211 14.1553 18.0268 14.3838 18.0268C15.6574 18.0268 17.6297 17.8693 17.6297 17.8693C18.2859 17.8302 18.3635 18.8113 17.7077 18.8903C17.7077 18.8903 17.0476 18.9688 16.3138 19.008L20.7486 32.4277L23.4142 24.2966L21.5169 19.008C20.8607 18.9688 20.2394 18.8903 20.2394 18.8903C19.5831 18.8508 19.66 17.8302 20.3167 17.8693C20.3167 17.8693 22.3277 18.0268 23.5243 18.0268C24.7976 18.0268 26.7704 17.8693 26.7704 17.8693C27.4269 17.8302 27.5043 18.8113 26.8481 18.8903C26.8481 18.8903 26.1874 18.9688 25.4543 19.008L29.8557 32.3255L31.0707 28.1967C31.5965 26.4824 31.9974 25.252 31.9974 24.1917Z" fill="#3E3D3A"/>
<path d="M24.3153 25.2275L20.8 35.9275C21.8498 36.2509 22.9598 36.4275 24.1096 36.4275C25.4738 36.4275 26.7824 36.1808 28 35.7319C27.9688 35.6791 27.9397 35.6234 27.916 35.5627L24.3153 25.2275Z" fill="#3E3D3A"/>
<path d="M35.2236 18.8276C35.2789 19.2257 35.3101 19.6528 35.3101 20.113C35.3101 21.3808 35.0656 22.8066 34.3313 24.5898L30.4 35.6276C34.2266 33.4611 36.8 29.4352 36.8 24.824C36.8 22.6508 36.2283 20.6078 35.2236 18.8276Z" fill="#3E3D3A"/>
<path fill-rule="evenodd" clip-rule="evenodd" d="M9.6 24.4275C9.6 16.4874 16.0597 10.0278 23.9999 10.0278C31.94 10.0278 38.4 16.4874 38.4 24.4275C38.4 32.368 31.94 38.8278 23.9999 38.8278C16.0597 38.8278 9.6 32.368 9.6 24.4275ZM10.2604 24.4275C10.2604 32.0035 16.424 38.1676 23.9999 38.1676C31.5757 38.1676 37.7395 32.0035 37.7395 24.4275C37.7395 16.8516 31.5757 10.6882 23.9999 10.6882C16.424 10.6882 10.2604 16.8516 10.2604 24.4275Z" fill="#3E3D3A"/>
</svg>
